<?xml version="1.0" encoding="UTF-8" standalone="no"?>
<svg
   xmlns:dc="http://purl.org/dc/elements/1.1/"
   xmlns:cc="http://creativecommons.org/ns#"
   xmlns:rdf="http://www.w3.org/1999/02/22-rdf-syntax-ns#"
   xmlns:svg="http://www.w3.org/2000/svg"
   xmlns="http://www.w3.org/2000/svg"
   xmlns:sodipodi="http://sodipodi.sourceforge.net/DTD/sodipodi-0.dtd"
   xmlns:inkscape="http://www.inkscape.org/namespaces/inkscape"
   width="210mm"
   height="297mm"
   viewBox="0 0 210 297"
   version="1.1"
   id="svg8"
   inkscape:version="1.0.2-2 (e86c870879, 2021-01-15)"
   sodipodi:docname="Logo1.svg">
  <defs
     id="defs2" />
  <sodipodi:namedview
     id="base"
     pagecolor="#ffffff"
     bordercolor="#666666"
     borderopacity="1.0"
     inkscape:pageopacity="0.0"
     inkscape:pageshadow="2"
     inkscape:zoom="2.8"
     inkscape:cx="360.51812"
     inkscape:cy="342.92071"
     inkscape:document-units="mm"
     inkscape:current-layer="layer2"
     inkscape:document-rotation="0"
     showgrid="false"
     inkscape:window-width="2880"
     inkscape:window-height="1541"
     inkscape:window-x="2869"
     inkscape:window-y="-11"
     inkscape:window-maximized="1" />
  <metadata
     id="metadata5">
    <rdf:RDF>
      <cc:Work
         rdf:about="">
        <dc:format>image/svg+xml</dc:format>
        <dc:type
           rdf:resource="http://purl.org/dc/dcmitype/StillImage" />
        <dc:title></dc:title>
      </cc:Work>
    </rdf:RDF>
  </metadata>
  <g
     inkscape:groupmode="layer"
     id="layer2"
     inkscape:label="telhado"
     style="display:inline">
    <path
       sodipodi:type="star"
       style="fill:#17731c;fill-opacity:0.01;fill-rule:evenodd;stroke:#17731c;stroke-width:1.94126;stroke-miterlimit:0;stroke-dasharray:none;stroke-opacity:1;paint-order:fill markers stroke"
       id="path841"
       sodipodi:sides="3"
       sodipodi:cx="92.415176"
       sodipodi:cy="14.930059"
       sodipodi:r1="64.756767"
       sodipodi:r2="3.7844837"
       sodipodi:arg1="1.0849591"
       sodipodi:arg2="2.1321567"
       inkscape:flatsided="true"
       inkscape:rounded="0"
       inkscape:randomized="0"
       d="M 122.65328,72.193453 27.704573,12.485325 126.88768,-39.8886 Z"
       inkscape:transform-center-x="-0.034841668"
       inkscape:transform-center-y="-0.45526062"
       transform="matrix(0.0271798,0.36583088,-0.72433429,0.01372739,109.36305,32.502169)" />
    <path
       style="fill:#17731c;fill-opacity:0.01;fill-rule:evenodd;stroke:#17731c;stroke-width:0.999999;stroke-miterlimit:0;stroke-dasharray:none;stroke-opacity:1;paint-order:fill markers stroke"
       d="m 61.504556,78.048826 c 0,-0.01344 8.898608,-7.804142 19.774686,-17.312689 18.896078,-16.52013 19.779858,-17.28473 19.890978,-17.20866 0.0639,0.04378 8.94327,7.809936 19.73179,17.258119 10.78854,9.448183 19.6447,17.20307 19.68037,17.233083 0.0519,0.04364 -7.85988,0.05457 -39.50649,0.05457 -21.764234,0 -39.571334,-0.01099 -39.571334,-0.02442 z"
       id="path897" />
    <path
       style="fill:#17731c;fill-opacity:0.01;fill-rule:evenodd;stroke:#17731c;stroke-width:0.999999;stroke-miterlimit:0;stroke-dasharray:none;stroke-opacity:1;paint-order:fill markers stroke"
       d="m 62.53119,77.646884 c 0.04856,-0.04241 1.367382,-1.176918 2.930711,-2.521117 1.563328,-1.344198 5.042956,-4.369212 7.732501,-6.722254 C 90.149611,53.569671 98.274965,46.479892 100.07332,44.950319 l 1.03839,-0.883203 1.76312,1.538038 c 1.71307,1.494373 19.82671,17.34836 31.06053,27.185756 l 5.55857,4.867609 -1.10402,0.02671 c -0.6072,0.01468 -17.94369,0.02941 -38.525514,0.03274 -35.762158,0.0057 -37.417587,0.0026 -37.333206,-0.07108 z"
       id="path899" />
    <path
       style="fill:#17731c;fill-opacity:0.01;fill-rule:evenodd;stroke:#17731c;stroke-width:0.999999;stroke-miterlimit:0;stroke-dasharray:none;stroke-opacity:1;paint-order:fill markers stroke"
       d="m 64.094503,77.335908 -0.484555,-0.02664 2.478202,-2.139127 C 69.40866,72.30395 70.693666,71.183757 83.465488,60.021618 98.714622,46.694395 101.04066,44.673589 101.1142,44.688823 c 0.0257,0.0053 0.2708,0.2061 0.54485,0.446206 0.27405,0.240106 8.65443,7.575015 18.62307,16.299797 9.96863,8.724781 18.10569,15.875583 18.08233,15.890669 -0.0547,0.03539 -73.627892,0.0457 -74.269947,0.01041 z"
       id="path901" />
    <path
       style="fill:#17731c;fill-opacity:0.01;fill-rule:evenodd;stroke:#17731c;stroke-width:0.999999;stroke-miterlimit:0;stroke-dasharray:none;stroke-opacity:1;paint-order:fill markers stroke"
       d="m 68.487656,76.982402 -3.794543,-0.02238 1.316888,-1.135047 c 2.750575,-2.370766 6.073026,-5.265211 16.611831,-14.471858 17.053114,-14.897516 18.396338,-16.065292 18.478908,-16.065292 0.0514,0 4.22493,3.643372 20.10345,17.549587 6.31389,5.529626 11.97366,10.495747 14.67725,12.878427 l 1.41176,1.244187 -11.38943,0.02634 c -13.38655,0.03096 -51.945522,0.02829 -57.416114,-0.004 z"
       id="path903" />
    <path
       style="fill:#17731c;fill-opacity:0.01;fill-rule:evenodd;stroke:#17731c;stroke-width:0.999999;stroke-miterlimit:0;stroke-dasharray:none;stroke-opacity:1;paint-order:fill markers stroke"
       d="m 72.718217,76.632918 -6.929261,-0.02213 2.290866,-1.986333 c 2.489965,-2.158965 8.09704,-7.048972 18.696418,-16.3054 8.608885,-7.51813 12.212702,-10.659811 13.38728,-11.670561 l 0.93002,-0.800297 0.66716,0.582018 c 0.36693,0.320109 1.11908,0.974919 1.67144,1.455131 3.04851,2.650342 24.28979,21.252743 30.45746,26.673626 l 2.33448,2.051816 -12.88202,0.02634 c -14.81331,0.03029 -40.493563,0.02815 -50.623843,-0.0042 z"
       id="path905" />
    <path
       style="fill:#17731c;fill-opacity:0.01;fill-rule:evenodd;stroke:#17731c;stroke-width:0.999999;stroke-miterlimit:0;stroke-dasharray:none;stroke-opacity:1;paint-order:fill markers stroke"
       d="m 75.749089,76.29428 -8.898678,-0.01123 3.225438,-2.804718 C 73.56441,70.444815 74.877559,69.299509 88.432762,57.46777 98.840363,48.383434 101.01808,46.492082 101.0859,46.478476 c 0.0271,-0.0054 1.22346,1.016104 2.65855,2.270095 5.12512,4.478362 14.36711,12.571025 22.82026,19.982366 l 8.5892,7.530607 -13.25915,0.02632 c -13.11312,0.02603 -28.883583,0.02822 -46.145671,0.0064 z"
       id="path907" />
    <path
       style="fill:#17731c;fill-opacity:0.01;fill-rule:evenodd;stroke:#17731c;stroke-width:0.999999;stroke-miterlimit:0;stroke-dasharray:none;stroke-opacity:1;paint-order:fill markers stroke"
       d="m 76.623659,75.945034 c -4.747736,-0.0062 -8.632248,-0.02317 -8.632248,-0.03774 0,-0.01457 0.614106,-0.559651 1.36468,-1.21128 1.984025,-1.722479 6.496881,-5.656189 13.804817,-12.033216 C 100.50676,47.52652 101.03267,47.070081 101.1077,47.08672 c 0.0959,0.02127 5.87166,5.070389 32.47459,28.389021 l 0.49804,0.436557 -13.12778,0.02637 c -12.98798,0.02608 -27.59819,0.02818 -44.328891,0.0064 z"
       id="path909" />
    <path
       style="fill:#17731c;fill-opacity:0.01;fill-rule:evenodd;stroke:#17731c;stroke-width:0.999999;stroke-miterlimit:0;stroke-dasharray:none;stroke-opacity:1;paint-order:fill markers stroke"
       d="m 77.400731,75.59579 c -4.580497,-0.0062 -8.328178,-0.02175 -8.328178,-0.03459 0,-0.01282 3.385068,-2.974247 7.522372,-6.580923 4.137307,-3.606676 9.909313,-8.63997 12.826683,-11.185096 6.012153,-5.245027 10.356298,-9.027741 11.137492,-9.698095 l 0.53044,-0.455184 0.29866,0.252686 c 0.80543,0.681456 10.80487,9.429154 25.68923,22.47343 l 5.92786,5.195028 -12.72541,0.0264 c -12.58501,0.0261 -26.719724,0.0282 -42.879149,0.0063 z"
       id="path911" />
    <path
       style="fill:#17731c;fill-opacity:0.01;fill-rule:evenodd;stroke:#17731c;stroke-width:0.999999;stroke-miterlimit:0;stroke-dasharray:none;stroke-opacity:1;paint-order:fill markers stroke"
       d="m 78.109645,75.246545 -8.092259,-0.01127 0.835206,-0.687402 c 0.459365,-0.378068 2.917031,-2.504568 5.461476,-4.725551 17.364014,-15.156606 24.730092,-21.566359 24.781872,-21.564496 0.0215,6.92e-4 0.43824,0.349477 0.9259,0.774889 3.43396,2.995641 6.55078,5.722806 16.84978,14.743294 6.41481,5.618488 11.9769,10.490464 12.36019,10.826612 l 0.6969,0.611179 -12.28848,0.02635 c -12.16651,0.02608 -25.879629,0.0282 -41.530585,0.0064 z"
       id="path913" />
    <path
       style="fill:#17731c;fill-opacity:0.01;fill-rule:evenodd;stroke:#17731c;stroke-width:0.999999;stroke-miterlimit:0;stroke-dasharray:none;stroke-opacity:1;paint-order:fill markers stroke"
       d="m 78.925594,74.889545 -7.749313,-0.02499 0.406764,-0.349246 C 72.875712,73.405433 77.64786,69.25369 83.475535,64.168911 97.399952,52.019539 101.03074,48.867594 101.10143,48.867594 c 0.0653,0 1.77808,1.495073 20.99791,18.329491 4.80727,4.210621 8.73131,7.66118 8.72009,7.667906 -0.0447,0.02682 -44.647122,0.04793 -51.893836,0.02455 z"
       id="path915" />
    <path
       style="fill:#17731c;fill-opacity:0.01;fill-rule:evenodd;stroke:#17731c;stroke-width:0.999999;stroke-miterlimit:0;stroke-dasharray:none;stroke-opacity:1;paint-order:fill markers stroke"
       d="m 128.80568,74.588261 c 0.0557,-0.01611 -12.64538,-0.03912 -28.22472,-0.05112 l -28.326092,-0.02183 0.383766,-0.327416 C 73.359672,73.572731 79.243501,68.452635 86.008285,62.553651 98.85022,51.35531 101.01667,49.478773 101.10313,49.478773 c 0.0774,0 10.41853,9.026935 24.25567,21.173008 4.54736,3.991625 4.46045,3.914737 4.46045,3.946081 0,0.01462 -0.25086,0.02504 -0.55746,0.02314 -0.3066,-0.0019 -0.51185,-0.01663 -0.45611,-0.03274 z"
       id="path917" />
    <path
       style="fill:#17731c;fill-opacity:0.01;fill-rule:evenodd;stroke:#17731c;stroke-width:0.999999;stroke-miterlimit:0;stroke-dasharray:none;stroke-opacity:1;paint-order:fill markers stroke"
       d="m 95.212813,74.187993 -21.869227,-0.02193 1.384916,-1.200531 c 1.212546,-1.051111 6.822172,-5.936209 18.698657,-16.283572 1.860223,-1.620716 4.34534,-3.778287 5.522482,-4.7946 l 2.140259,-1.847842 0.7033,0.603655 c 2.32012,1.991421 23.84006,20.819789 26.69844,23.359181 l 0.25799,0.229194 -5.83379,-0.01082 c -3.20859,-0.0059 -15.67495,-0.02068 -27.703027,-0.03274 z"
       id="path919" />
    <path
       style="fill:#17731c;fill-opacity:0.01;fill-rule:evenodd;stroke:#17731c;stroke-width:0.999999;stroke-miterlimit:0;stroke-dasharray:none;stroke-opacity:1;paint-order:fill markers stroke"
       d="m 93.12153,73.838764 -18.689939,-0.02195 8.672275,-7.552432 C 98.622668,52.749505 101.04374,50.651994 101.107,50.66724 c 0.0969,0.02335 24.88971,21.688617 26.40399,23.07318 l 0.15519,0.141881 -7.92736,-0.0108 c -4.36004,-0.0059 -16.33782,-0.02067 -26.61729,-0.03274 z"
       id="path921" />
    <path
       style="fill:#17731c;fill-opacity:0.01;fill-rule:evenodd;stroke:#17731c;stroke-width:0.999999;stroke-miterlimit:0;stroke-dasharray:none;stroke-opacity:1;paint-order:fill markers stroke"
       d="m 92.277315,73.489531 -16.76373,-0.02196 6.617375,-5.762552 c 16.512579,-14.379499 18.8983,-16.444797 18.97603,-16.427392 0.0315,0.0071 0.61097,0.494161 1.28755,1.082422 7.41183,6.444397 23.92954,20.895715 24.13815,21.118438 0.0548,0.0585 1.5927,0.058 -34.255375,0.01105 z"
       id="path923" />
    <path
       style="fill:#17731c;fill-opacity:0.01;fill-rule:evenodd;stroke:#17731c;stroke-width:0.999999;stroke-miterlimit:0;stroke-dasharray:none;stroke-opacity:1;paint-order:fill markers stroke"
       d="m 92.176984,73.140296 -15.580202,-0.02197 1.153707,-1.00482 c 20.195024,-17.588842 23.246371,-20.23367 23.343681,-20.23367 0.0695,0 0.15179,0.07046 4.02824,3.448799 8.25027,7.190156 20.16742,17.624671 20.32986,17.800608 0.0539,0.0584 0.26011,0.05833 -33.275286,0.01105 z"
       id="path925" />
    <path
       style="fill:#17731c;fill-opacity:0.01;fill-rule:evenodd;stroke:#17731c;stroke-width:0.999999;stroke-miterlimit:0;stroke-dasharray:none;stroke-opacity:1;paint-order:fill markers stroke"
       d="m 92.211212,72.791059 -14.532405,-0.02198 4.387018,-3.819873 c 14.222763,-12.384073 18.974045,-16.5029 19.033995,-16.500329 0.037,0.0016 0.81549,0.674682 4.87059,4.211257 6.98517,6.091977 18.13039,15.85073 18.34987,16.06714 l 0.1088,0.107291 -8.84272,-0.01077 c -4.86352,-0.0059 -15.38232,-0.02066 -23.375148,-0.03274 z"
       id="path927" />
    <path
       style="fill:#17731c;fill-opacity:0.01;fill-rule:evenodd;stroke:#17731c;stroke-width:0.999999;stroke-miterlimit:0;stroke-dasharray:none;stroke-opacity:1;paint-order:fill markers stroke"
       d="m 92.481777,72.441823 -13.721263,-0.02199 5.366174,-4.671159 C 97.376923,56.214591 101.02366,53.058539 101.10076,53.058539 c 0.0607,0 0.92713,0.751324 8.91153,7.727057 7.65716,6.68984 13.18375,11.536093 13.27995,11.645155 0.0515,0.05829 -1.08315,0.0587 -30.810463,0.01107 z"
       id="path929" />
    <path
       style="fill:#17731c;fill-opacity:0.01;fill-rule:evenodd;stroke:#17731c;stroke-width:0.999999;stroke-miterlimit:0;stroke-dasharray:none;stroke-opacity:1;paint-order:fill markers stroke"
       d="m 92.651577,72.09259 -12.808183,-0.022 4.689333,-4.081808 C 95.687746,58.27895 100.97562,53.698088 101.07456,53.658658 c 0.0588,-0.0234 3.1616,2.667069 12.80104,11.099606 5.40228,4.725885 8.13097,7.121222 8.28259,7.270724 l 0.10861,0.107086 -8.40352,-0.01076 c -4.62194,-0.0059 -14.167204,-0.02065 -21.211703,-0.03274 z"
       id="path931" />
    <path
       style="fill:#17731c;fill-opacity:0.01;fill-rule:evenodd;stroke:#17731c;stroke-width:0.999999;stroke-miterlimit:0;stroke-dasharray:none;stroke-opacity:1;paint-order:fill markers stroke"
       d="m 93.124894,71.743351 -12.199721,-0.02201 3.91284,-3.405142 c 6.972535,-6.067838 10.486052,-9.119366 13.383412,-11.623647 2.671845,-2.309354 2.848095,-2.451374 2.952755,-2.379236 0.23855,0.164422 3.17237,2.708052 9.2526,8.022053 5.75503,5.029786 10.74334,9.408157 10.74334,9.429724 0,0.0222 -6.45676,0.0172 -28.045226,-0.02174 z"
       id="path933" />
    <path
       style="fill:#17731c;fill-opacity:0.01;fill-rule:evenodd;stroke:#17731c;stroke-width:0.999999;stroke-miterlimit:0;stroke-dasharray:none;stroke-opacity:1;paint-order:fill markers stroke"
       d="m 94.003353,71.394109 -11.996976,-0.02201 6.072719,-5.282339 c 8.926665,-7.764836 12.964694,-11.246581 13.026804,-11.23224 0.0939,0.02166 5.92669,5.092095 14.01926,12.186767 1.96823,1.725522 3.90261,3.419907 4.29863,3.765303 l 0.72003,0.627991 -7.07174,-0.01074 c -3.88946,-0.0059 -12.47039,-0.02064 -19.068727,-0.03274 z"
       id="path935" />
    <path
       style="fill:#17731c;fill-opacity:0.01;fill-rule:evenodd;stroke:#17731c;stroke-width:0.999999;stroke-miterlimit:0;stroke-dasharray:none;stroke-opacity:1;paint-order:fill markers stroke"
       d="M 94.273625,71.044876 83.08749,71.022846 88.383552,66.417172 C 96.005238,59.78904 101.0292,55.459595 101.0989,55.459595 c 0.0853,0 4.29174,3.654415 15.15866,13.1692 1.51265,1.324441 2.75027,2.419653 2.75027,2.433804 0,0.02586 -4.07564,0.02294 -24.734205,-0.01773 z"
       id="path937" />
    <path
       style="fill:#17731c;fill-opacity:0.01;fill-rule:evenodd;stroke:#17731c;stroke-width:0.999999;stroke-miterlimit:0;stroke-dasharray:none;stroke-opacity:1;paint-order:fill markers stroke"
       d="m 95.050112,70.695636 -10.882646,-0.02203 1.480615,-1.287843 c 9.843687,-8.562062 15.316169,-13.279752 15.432319,-13.30383 0.10773,-0.02234 2.65986,2.182204 12.34388,10.66266 1.91928,1.680743 3.73116,3.267084 4.0264,3.525197 l 0.53681,0.469298 -6.02737,-0.01072 c -3.31504,-0.0059 -10.92455,-0.02063 -16.910008,-0.03274 z"
       id="path939" />
    <path
       style="fill:#17731c;fill-opacity:0.01;fill-rule:evenodd;stroke:#17731c;stroke-width:0.999999;stroke-miterlimit:0;stroke-dasharray:none;stroke-opacity:1;paint-order:fill markers stroke"
       d="m 95.218719,70.346407 -9.970756,-0.02205 3.540229,-3.077726 c 2.859212,-2.485677 11.892978,-10.28406 12.228058,-10.555842 0.046,-0.03737 0.0952,-0.05956 0.10903,-0.0493 0.28141,0.20761 4.36618,3.756382 10.34772,8.989885 2.37376,2.076918 4.5687,3.997225 4.87763,4.267344 l 0.56167,0.491126 -5.8614,-0.0107 c -3.22379,-0.0059 -10.34826,-0.02062 -15.832181,-0.03274 z"
       id="path941" />
    <path
       style="fill:#17731c;fill-opacity:0.01;fill-rule:evenodd;stroke:#17731c;stroke-width:0.999999;stroke-miterlimit:0;stroke-dasharray:none;stroke-opacity:1;paint-order:fill markers stroke"
       d="m 95.523111,69.99718 -9.19336,-0.02206 1.480537,-1.287844 c 2.50044,-2.175002 11.577188,-10.020007 12.466622,-10.774867 l 0.8392,-0.712229 1.04809,0.908681 c 1.30861,1.134567 8.86656,7.726829 11.17705,9.748957 0.9465,0.828367 1.8953,1.65837 2.10847,1.844451 l 0.38758,0.338332 -5.56041,-0.01068 c -3.05823,-0.0059 -9.69742,-0.02061 -14.753779,-0.03274 z"
       id="path943" />
    <path
       style="fill:#17731c;fill-opacity:0.01;fill-rule:evenodd;stroke:#17731c;stroke-width:0.999999;stroke-miterlimit:0;stroke-dasharray:none;stroke-opacity:1;paint-order:fill markers stroke"
       d="m 95.892577,69.647953 -8.486037,-0.02209 2.191915,-1.899023 c 6.539802,-5.665924 11.468315,-9.909839 11.508435,-9.909839 0.025,0 3.0342,2.607879 6.68711,5.79529 3.6529,3.187411 6.71618,5.85914 6.80726,5.937174 l 0.16561,0.141881 -5.19412,-0.01067 c -2.85678,-0.0058 -9.01284,-0.0206 -13.680173,-0.03274 z"
       id="path945" />
    <path
       style="fill:#17731c;fill-opacity:0.01;fill-rule:evenodd;stroke:#17731c;stroke-width:0.999999;stroke-miterlimit:0;stroke-dasharray:none;stroke-opacity:1;paint-order:fill markers stroke"
       d="m 96.287451,69.309371 -7.820877,-0.01129 0.716574,-0.62191 c 0.394119,-0.342052 3.258355,-2.816667 6.364975,-5.499148 5.343967,-4.614375 5.654937,-4.873412 5.769777,-4.806273 0.15235,0.08908 0.15718,0.150882 0.009,0.114127 -0.0846,-0.02095 -0.0979,-0.01246 -0.054,0.03411 0.0322,0.03409 1.27826,1.122823 2.76908,2.419396 1.49082,1.296575 4.24071,3.693271 6.11086,5.325995 1.87013,1.632721 3.43022,2.993142 3.46684,3.023155 0.0532,0.04357 -0.89887,0.05241 -4.72236,0.04384 -2.63392,-0.0059 -8.30834,-0.0158 -12.60983,-0.02201 z"
       id="path947" />
    <path
       style="fill:#17731c;fill-opacity:0.01;fill-rule:evenodd;stroke:#17731c;stroke-width:0.999999;stroke-miterlimit:0;stroke-dasharray:none;stroke-opacity:1;paint-order:fill markers stroke"
       d="m 95.486727,68.949568 -5.918745,-0.02218 5.668321,-4.889437 c 3.117574,-2.68919 5.721087,-4.923847 5.785587,-4.965902 0.11152,-0.07272 0.14738,-0.05025 0.7316,0.458385 0.33789,0.294167 2.88791,2.519001 5.66672,4.944073 2.77881,2.425075 5.08219,4.433782 5.11863,4.463795 0.0702,0.05779 -3.93489,0.06044 -17.052113,0.01127 z"
       id="path949" />
    <path
       style="fill:#17731c;fill-opacity:0.01;fill-rule:evenodd;stroke:#17731c;stroke-width:0.999999;stroke-miterlimit:0;stroke-dasharray:none;stroke-opacity:1;paint-order:fill markers stroke"
       d="m 96.016795,68.610881 -5.388683,-0.01144 5.207153,-4.48536 c 2.863933,-2.466948 5.239705,-4.485361 5.279495,-4.485361 0.0519,0 8.86283,7.632483 10.26819,8.894846 l 0.13365,0.120053 -5.05556,-0.01065 c -2.78056,-0.0058 -7.480474,-0.0158 -10.444245,-0.02208 z"
       id="path951" />
    <path
       style="fill:#17731c;fill-opacity:0.01;fill-rule:evenodd;stroke:#17731c;stroke-width:0.999999;stroke-miterlimit:0;stroke-dasharray:none;stroke-opacity:1;paint-order:fill markers stroke"
       d="m 60.375323,78.595872 c -0.03555,-0.0247 -0.144259,-0.101998 -0.241577,-0.171785 l -0.176943,-0.126885 20.321134,-14.618395 20.321133,-14.618395 0.47078,-0.0085 0.47077,-0.0085 20.27142,14.604322 c 11.14928,8.032378 20.28136,14.618724 20.29349,14.636327 0.0121,0.0176 -0.0767,0.105065 -0.19727,0.194367 l -0.21935,0.162366 h -40.62447 c -32.420062,0 -40.637532,-0.009 -40.689117,-0.0449 z m 3.623746,-0.399117 c -0.07162,-0.03301 -2.629654,-0.05454 -2.629654,-0.02213 0,0.02168 0.508563,0.0351 1.328904,0.0351 0.730897,0 1.316233,-0.0058 1.30075,-0.01298 z m 4.145665,-1.770681 c -0.04575,-0.0098 -0.136969,-0.01045 -0.202713,-0.0013 -0.06574,0.0091 -0.02832,0.01715 0.08318,0.01789 0.111493,7.2e-4 0.165286,-0.0067 0.119537,-0.01655 z m 1.081142,-0.287361 c -0.04575,-0.0098 -0.136969,-0.01045 -0.202713,-0.0013 -0.06574,0.0091 -0.02832,0.01715 0.08318,0.01789 0.111493,7.18e-4 0.165285,-0.0067 0.119536,-0.01656 z m 51.428104,-3.191306 c -0.0213,-0.02964 -0.002,0.848145 -0.0496,0.848145 -0.0472,0 1.6624,-1.659478 -0.24514,-0.848145 -0.0784,0.03333 -0.006,-1.032802 0.172,-1.032802 0.15789,0 0.15212,1.073552 0.12272,1.032802 z m -2.11915,-0.554644 c 0,-0.06224 -0.11893,-0.07375 -0.20333,-0.01969 -0.0695,0.04451 -0.0595,0.05348 0.0599,0.05348 0.0789,0 0.14342,-0.01521 0.14342,-0.0338 z m -8.01659,-2.274079 c -0.15176,-0.133269 -8.15317,-5.857178 -9.17321,-6.562179 -0.06,-0.04141 -0.0513,-0.04698 0.0436,-0.02807 0.065,0.01296 0.11825,0.01542 0.11825,0.0055 0,-0.0362 -0.21964,-0.19517 -0.26966,-0.19517 -0.0637,0 -1.11741,0.735952 -5.861019,4.093554 -2.052544,1.452825 -4.747305,1.152433 -4.748089,1.167122 -8.03e-4,0.01469 3.240666,1.532047 5.96295,1.537247 2.722282,0.0051 6.981078,0.01339 9.463988,0.01819 3.59716,0.007 4.50399,-4.27e-4 4.46324,-0.03616 z"
       id="path953"
       sodipodi:nodetypes="sscccccssccssssssssccscccccccsssscsssssscsssssccssc" />
    <path
       style="fill:#17731c;fill-opacity:0.01;fill-rule:evenodd;stroke:#17731c;stroke-width:0.999999;stroke-miterlimit:0;stroke-dasharray:none;stroke-opacity:1;paint-order:fill markers stroke"
       d="m 96.557225,67.95605 c -5.049039,-0.0064 14.506695,0.645204 14.506695,0.631354 0,-0.0255 -23.633991,4.149019 -22.479684,3.133319 l 12.399054,-11.261644 1.99143,1.840879 c 2.14638,1.984107 9.33616,8.240134 9.33616,8.240134 0.0516,0.05567 -1.32851,-2.648494 -15.753655,-2.584048 z"
       id="path955"
       sodipodi:nodetypes="csscsccc" />
    <path
       style="fill:#17731c;fill-opacity:0.01;fill-rule:evenodd;stroke:#17731c;stroke-width:0.999999;stroke-miterlimit:0;stroke-dasharray:none;stroke-opacity:1;paint-order:fill markers stroke"
       d="m 104.13335,63.68543 -3.02488,-0.0225 -7.120016,3.710985 c 2.952784,4.476457 1.788095,-1.519615 3.662548,-3.132296 1.874454,-1.612683 3.430078,-2.932149 3.456938,-2.932149 0.0455,0 1.62071,1.358226 5.56924,4.802125 0.89468,0.780345 1.64993,1.443366 1.67831,1.473379 0.0542,0.05729 -4.80099,0.06215 -11.596609,0.01158 z"
       id="path957"
       sodipodi:nodetypes="cccsssssc" />
    <path
       style="fill:#17731c;fill-opacity:0.01;fill-rule:evenodd;stroke:#17731c;stroke-width:0.999999;stroke-miterlimit:0;stroke-dasharray:none;stroke-opacity:1;paint-order:fill markers stroke"
       d="m 97.44039,67.257569 -2.613657,-0.01194 3.042576,-2.607916 c 1.673417,-1.434355 3.092831,-2.641294 3.154231,-2.682087 0.10438,-0.06934 0.30979,0.09811 3.15237,2.569783 1.67239,1.454175 3.06502,2.671166 3.09474,2.704426 0.0555,0.06208 -1.41529,0.06622 -9.83026,0.02774 z"
       id="path959" />
    <path
       style="fill:#17731c;fill-opacity:0.01;fill-rule:evenodd;stroke:#17731c;stroke-width:0.999999;stroke-miterlimit:0;stroke-dasharray:none;stroke-opacity:1;paint-order:fill markers stroke"
       d="m 97.807297,66.908336 c -1.012727,-0.0068 -1.841323,-0.02279 -1.841323,-0.03557 0,-0.03443 5.069396,-4.361107 5.123196,-4.3726 0.0253,-0.0054 0.3017,0.208722 0.61419,0.475842 0.77351,0.661205 4.42653,3.842547 4.49025,3.91047 0.0507,0.05397 -2.57541,0.06083 -8.386313,0.02186 z"
       id="path961" />
    <path
       style="fill:#17731c;fill-opacity:0.01;fill-rule:evenodd;stroke:#17731c;stroke-width:0.999999;stroke-miterlimit:0;stroke-dasharray:none;stroke-opacity:1;paint-order:fill markers stroke"
       d="m 98.274992,66.549642 -1.238481,-0.02333 0.355047,-0.305588 c 2.276568,-1.959438 3.673402,-3.121957 3.735212,-3.108642 0.0677,0.01457 3.7999,3.217673 3.96551,3.403317 0.0645,0.0723 -0.083,0.07589 -2.75531,0.06698 -1.55292,-0.0051 -3.380811,-0.01991 -4.061978,-0.03274 z"
       id="path963" />
    <path
       style="fill:#17731c;fill-opacity:0.01;fill-rule:evenodd;stroke:#17731c;stroke-width:0.999999;stroke-miterlimit:0;stroke-dasharray:none;stroke-opacity:1;paint-order:fill markers stroke"
       d="m 99.05354,66.200786 -0.932935,-0.02372 1.135649,-0.963039 c 0.624612,-0.529671 1.296876,-1.095352 1.493936,-1.257069 l 0.35828,-0.294028 0.48052,0.405781 c 1.04012,0.878356 2.48556,2.129188 2.48556,2.150911 0,0.02799 -3.72922,0.01399 -5.02101,-0.01884 z"
       id="path965" />
    <path
       style="fill:#17731c;fill-opacity:0.01;fill-rule:evenodd;stroke:#17731c;stroke-width:0.999999;stroke-miterlimit:0;stroke-dasharray:none;stroke-opacity:1;paint-order:fill markers stroke"
       d="m 99.735666,65.852564 -0.521092,-0.02473 0.905556,-0.763096 c 0.49805,-0.419704 0.93257,-0.768915 0.96559,-0.776027 0.0487,-0.01049 1.69557,1.356573 1.86724,1.550037 0.0381,0.04299 -0.24253,0.05288 -1.32388,0.04657 -0.75477,-0.0044 -1.6068,-0.01913 -1.893414,-0.03274 z"
       id="path967" />
    <path
       style="fill:#17731c;fill-opacity:0.01;fill-rule:evenodd;stroke:#17731c;stroke-width:0.999999;stroke-miterlimit:0;stroke-dasharray:none;stroke-opacity:1;paint-order:fill markers stroke"
       d="m 100.37395,65.514926 c -0.0717,-0.01865 0.23141,-0.310653 0.66557,-0.641182 0.0405,-0.03076 0.87275,0.590437 0.87275,0.651354 0,0.02653 -1.43367,0.01705 -1.53832,-0.01016 z"
       id="path969" />
    <path
       style="fill:#17731c;fill-opacity:0.01;fill-rule:evenodd;stroke:#17731c;stroke-width:1;stroke-miterlimit:0;stroke-dasharray:none;stroke-opacity:1;paint-order:fill markers stroke"
       d="m 101.09233,68.106236 c 0.006,-0.01458 0.0149,-0.05593 0.0206,-0.09187 0.006,-0.03595 0.0151,-0.06501 0.0208,-0.06459 0.006,5.29e-4 0.0555,0.04175 0.11062,0.09184 l 0.10023,0.09108 -0.13125,2.9e-5 c -0.11302,2.6e-5 -0.12983,-0.0037 -0.12107,-0.02649 z"
       id="path971" />
  </g>
  <g
     inkscape:label="Camada 1"
     inkscape:groupmode="layer"
     id="layer1"
     style="display:inline">
    <rect
       style="fill:#17731c;fill-opacity:1;fill-rule:evenodd;stroke-width:0.264583"
       id="rect833"
       width="68.224701"
       height="51.026787"
       x="67.023369"
       y="72.571426" />
    <ellipse
       style="fill:#ffffff;fill-opacity:0.01;fill-rule:nonzero;stroke:#ffffff;stroke-width:4.99999;stroke-miterlimit:0;stroke-dasharray:none;stroke-opacity:1;paint-order:fill markers stroke"
       id="path1027"
       cx="101.36734"
       cy="119.50288"
       rx="10.089425"
       ry="10.122833" />
    <rect
       style="fill:#17731c;fill-opacity:1;fill-rule:evenodd;stroke-width:0.264583"
       id="rect1050"
       width="2.1686127"
       height="13.6986"
       x="120.19296"
       y="48.703461"
       ry="0" />
    <ellipse
       style="fill:#ffffff;fill-opacity:1;fill-rule:nonzero;stroke:#17731c;stroke-width:1;stroke-miterlimit:0;stroke-dasharray:none;stroke-opacity:1;paint-order:fill markers stroke"
       id="path1054"
       cx="121.09647"
       cy="47.365139"
       rx="2.0906806"
       ry="1.984375" />
    <text
       xml:space="preserve"
       style="font-size:10.5833px;line-height:1.25;font-family:'Bookshelf Symbol 7';-inkscape-font-specification:'Bookshelf Symbol 7, ';stroke-width:0.264583"
       x="84.477676"
       y="68.224701"
       id="text1058"><tspan
         sodipodi:role="line"
         id="tspan1056"
         x="84.477676"
         y="68.224701"
         style="stroke-width:0.264583" /><tspan
         sodipodi:role="line"
         x="84.477676"
         y="81.453827"
         style="stroke-width:0.264583"
         id="tspan1060" /></text>
    <text
       xml:space="preserve"
       style="font-size:10.5833px;line-height:1.25;font-family:'Franklin Gothic Demi';-inkscape-font-specification:'Franklin Gothic Demi';stroke-width:0.264583;font-weight:normal;font-style:normal;font-stretch:normal;font-variant:normal;"
       x="83.588539"
       y="82.853546"
       id="text1064"><tspan
         sodipodi:role="line"
         id="tspan1062"
         x="83.588539"
         y="82.853546"
         style="stroke-width:0.264583;-inkscape-font-specification:'Franklin Gothic Demi';font-family:'Franklin Gothic Demi';font-weight:normal;font-style:normal;font-stretch:normal;font-variant:normal;" /></text>
  </g>
  <g
     inkscape:groupmode="layer"
     id="layer4"
     inkscape:label="LETRAS"
     style="display:inline">
    <text
       xml:space="preserve"
       style="font-size:23.8036px;line-height:1.25;font-family:'Franklin Gothic Demi';-inkscape-font-specification:'Franklin Gothic Demi';display:inline;stroke-width:0.264581"
       x="93.258827"
       y="71.040192"
       id="text1072"
       transform="scale(0.8273611,1.2086621)"><tspan
         sodipodi:role="line"
         id="tspan1070"
         x="93.258827"
         y="71.040192"
         style="font-style:normal;font-variant:normal;font-weight:normal;font-stretch:normal;font-size:16.9333px;font-family:'a Atmospheric';-inkscape-font-specification:'a Atmospheric';fill:#ffffff;fill-opacity:1;stroke-width:0.264581">H S H</tspan></text>
  </g>
  <g
     inkscape:groupmode="layer"
     id="layer3"
     inkscape:label="wifi"
     style="display:inline">
    <path
       style="display:inline;fill:#ffffff;fill-opacity:0.01;fill-rule:evenodd;stroke:#ffffff;stroke-width:0.999999;stroke-miterlimit:0;stroke-dasharray:none;stroke-opacity:1;paint-order:fill markers stroke"
       id="path1011"
       sodipodi:type="arc"
       sodipodi:cx="-100.27962"
       sodipodi:cy="-124.43559"
       sodipodi:rx="4.2291541"
       sodipodi:ry="4.9478993"
       sodipodi:start="0"
       sodipodi:end="3.1621827"
       sodipodi:arc-type="slice"
       d="m -96.050463,-124.43559 a 4.2291541,4.9478993 0 0 1 -2.139764,4.30188 4.2291541,4.9478993 0 0 1 -4.254043,-0.0512 4.2291541,4.9478993 0 0 1 -2.0636,-4.35251 l 4.22825,0.10187 z"
       transform="matrix(-0.99996678,0.00815062,-0.00802368,-0.99996781,0,0)"
       inkscape:transform-center-x="0.085006062"
       inkscape:transform-center-y="0.38382988" />
    <path
       style="fill:#ffffff;fill-opacity:0.01;fill-rule:evenodd;stroke:#ffffff;stroke-width:1;stroke-miterlimit:0;stroke-dasharray:none;stroke-opacity:1;paint-order:fill markers stroke"
       d="m 97.82108,122.4857 c 0.394152,-1.77824 1.897283,-3.15661 3.44232,-3.15661 1.09105,0 2.26656,0.7374 2.94231,1.84573 0.21011,0.34461 0.62848,1.50177 0.62848,1.73831 0,0.0396 -1.60228,0.0694 -3.56063,0.0662 l -3.56061,-0.006 z"
       id="path1019" />
    <path
       style="fill:#ffffff;fill-opacity:0.01;fill-rule:evenodd;stroke:#ffffff;stroke-width:1;stroke-miterlimit:0;stroke-dasharray:none;stroke-opacity:1;paint-order:fill markers stroke"
       d="m 98.566221,122.22925 c 0.0016,-0.21007 0.471335,-0.94986 0.845198,-1.33083 0.602241,-0.61369 1.133321,-0.85997 1.851981,-0.85882 0.49835,6.6e-4 0.67007,0.0406 1.05599,0.24476 0.56845,0.30071 1.18446,0.92654 1.44533,1.46837 0.10813,0.22458 0.19661,0.44717 0.19661,0.49463 0,0.0577 -0.89434,0.0863 -2.69793,0.0863 -2.105834,0 -2.697761,-0.0229 -2.697179,-0.1044 z"
       id="path1021" />
    <path
       style="fill:#ffffff;fill-opacity:0.01;fill-rule:evenodd;stroke:#ffffff;stroke-width:1;stroke-miterlimit:0;stroke-dasharray:none;stroke-opacity:1;paint-order:fill markers stroke"
       d="m 99.731953,121.55063 c 0.0915,-0.16561 0.498307,-0.50746 0.793507,-0.66674 0.3564,-0.19231 1.1395,-0.18079 1.51477,0.0223 0.16192,0.0876 0.43724,0.29275 0.61181,0.45585 l 0.3174,0.29655 -1.65047,0.003 c -1.379377,0.003 -1.640047,-0.0154 -1.587017,-0.11142 z"
       id="path1023" />
    <ellipse
       style="display:inline;fill:#ffffff;fill-opacity:0.01;fill-rule:nonzero;stroke:#ffffff;stroke-width:4.99998;stroke-miterlimit:0;stroke-dasharray:none;stroke-opacity:1;paint-order:fill markers stroke"
       id="path1027-8"
       cx="101.40076"
       cy="114.85907"
       rx="19.477266"
       ry="17.673197" />
  </g>
</svg>
