<svg id="Layer_1" height="512" viewBox="0 0 512 512" width="512" xmlns="http://www.w3.org/2000/svg" data-name="Layer 1"><path d="m420.85 253.625v-191.186a11.455 11.455 0 0 0 -11.444-11.439h-339.532a11.455 11.455 0 0 0 -11.444 11.439v189.929h52.1a20.33 20.33 0 0 1 19.712 15.493h203.59a18.575 18.575 0 0 1 18.03-14.236z"/><path d="m298.859 376.559h-47.448a5 5 0 0 1 0-10h29.343a21.284 21.284 0 0 1 -3.339-11.44v-19.719h-80.443v19.721a21.467 21.467 0 0 1 -21.444 21.44 19.7 19.7 0 0 0 -19.022 14.659h161.375a19.7 19.7 0 0 0 -19.022-14.661zm-67.974 0h-.391a5 5 0 1 1 0-10h.391a5 5 0 0 1 0 10z"/><path d="m237.193 304.85a3.22 3.22 0 1 0 -3.222-3.22 3.225 3.225 0 0 0 3.222 3.22z"/><path d="m110.531 262.368h-84.219a10.322 10.322 0 0 0 -10.312 10.309v8.646h9.017a5 5 0 0 1 0 10h-9.017v128.059h104.844v-128.059h-60.964a5 5 0 1 1 0-10h60.964v-8.646a10.322 10.322 0 0 0 -10.313-10.309zm-68.18 28.955h-.093a5 5 0 1 1 .093 0z"/><path d="m130.844 325.4h202.461v-47.539h-202.461zm106.349-36.99a13.22 13.22 0 1 1 -13.222 13.22 13.236 13.236 0 0 1 13.222-13.22z"/><path d="m487.442 263.625h-135.579a8.565 8.565 0 0 0 -8.558 8.554v180.267a8.565 8.565 0 0 0 8.558 8.554h135.579a8.565 8.565 0 0 0 8.558-8.554v-180.267a8.565 8.565 0 0 0 -8.558-8.554zm-60.519 187.722h-14.541a5 5 0 0 1 0-10h14.541a5 5 0 0 1 0 10zm58.74-21.265a5 5 0 0 1 -5 5h-122.021a5 5 0 0 1 -5-5v-149.093a5 5 0 0 1 5-5h122.021a5 5 0 0 1 5 5z"/><path d="m363.642 285.989h112.021v139.093h-112.021z"/><path d="m16 450.692a10.322 10.322 0 0 0 10.312 10.308h84.219a10.322 10.322 0 0 0 10.313-10.308v-21.31h-104.844zm52.422-14.35a7.87 7.87 0 1 1 -7.871 7.87 7.879 7.879 0 0 1 7.871-7.87z"/></svg>